<svg width="64" height="59" viewBox="0 0 64 59" fill="none" xmlns="http://www.w3.org/2000/svg">
<path d="M49.773 0.387416C47.7466 0.668178 43.8159 1.86447 41.4722 2.92648C41.0693 3.10958 40.5444 3.34152 40.3125 3.45138C39.1406 3.97628 36.0278 5.83175 35.9424 6.06369C35.918 6.11251 35.8447 6.16134 35.7715 6.16134C35.6006 6.16134 33.9526 7.52853 32.9272 8.52951C29.5703 11.801 27.8125 14.8161 26.9946 18.6736C26.7627 19.7844 26.7139 20.3703 26.7139 22.0305C26.7261 23.8737 26.7505 24.1667 27.1045 25.4729C27.4829 26.9377 28.2886 28.8054 28.9355 29.7453C29.4116 30.4411 30.6812 31.6863 30.8398 31.6374C30.9131 31.613 31.0474 31.2712 31.145 30.8684C31.5234 29.2204 32.6709 25.9001 33.3057 24.594C35.1367 20.8464 37.7856 16.8425 41.3501 12.4358C42.3267 11.2273 45.708 7.76046 46.5869 7.07687C46.8433 6.86935 47.1118 6.64962 47.1973 6.57638C47.5269 6.27121 48.0029 6.01486 48.0029 6.14914C48.0029 6.46652 47.2705 7.69943 45.6348 10.1286C44.6948 11.5324 43.9258 12.7043 43.9502 12.7165C43.9624 12.7409 43.8892 12.8508 43.7793 12.9607C43.4375 13.3513 41.0449 17.2453 40.8862 17.6604C40.7764 17.9533 40.9839 17.9411 41.9727 17.5627C43.0225 17.1599 44.0967 16.8425 44.8901 16.6716C45.2319 16.6106 45.9277 16.4153 46.4404 16.2566C47.9419 15.7805 47.9053 16.0857 46.2939 17.404C45.647 17.9289 45.2808 18.1731 43.3643 19.3327C40.2759 21.1882 39.3359 21.8352 38.4814 22.6653C36.9678 24.1301 36.7114 24.5329 35.5029 27.1696C34.8315 28.6467 34.3799 30.4289 34.2578 32.1135L34.1724 33.2488L34.5264 33.3952C35.0879 33.6272 38.2251 33.5905 39.4824 33.3464C41.6553 32.9192 43.938 31.9426 45.2563 30.8806C45.5249 30.6731 45.8423 30.4411 45.9644 30.3801C46.416 30.1238 47.6978 28.8908 48.5645 27.8654C50.4443 25.6194 51.6895 23.3977 52.6294 20.5656C54.0454 16.3176 54.1675 10.4948 52.9468 5.67306C52.3975 3.50021 51.4697 1.09542 50.957 0.509487C50.7739 0.314174 50.542 0.277553 49.773 0.387416Z" fill="white"/>
<path d="M5.32725 12.3747C4.33848 12.985 2.93467 15.4997 1.79942 18.7345C0.603127 22.1159 -0.0316383 26.8766 0.261331 30.2213C0.639749 34.6037 1.421 37.2892 3.63047 41.8669C4.81455 44.3205 7.60996 48.1046 9.73399 50.131C10.0025 50.3874 10.4542 50.8146 10.735 51.0832C11.0157 51.3517 11.2965 51.5714 11.3697 51.5714C11.443 51.5714 11.504 51.6203 11.504 51.6691C11.504 51.779 13.3351 53.1828 14.1896 53.7199C18.2301 56.2834 23.1739 58.1266 27.8004 58.798C29.253 59.0055 34.6607 59.0055 35.9791 58.7858C38.6647 58.3585 41.8263 57.5651 42.7052 57.089C42.8273 57.0158 43.2911 56.8449 43.7306 56.6984C45.0367 56.2467 47.8932 54.7697 49.7731 53.549C50.652 52.9875 52.3365 51.6447 52.8858 51.0954C53.0567 50.9245 53.3375 50.6681 53.4962 50.5338C53.7648 50.3141 54.8512 49.1789 56.0597 47.8483C57.4635 46.298 59.0504 43.8932 60.3321 41.3786C61.443 39.2057 62.3341 36.7643 62.7125 34.8722C62.8102 34.3473 62.9689 33.5417 63.0665 33.0778C63.9088 28.903 63.4815 23.3 61.9801 18.7956C61.089 16.1344 59.7828 13.4489 58.9894 12.6432C58.2569 11.9108 57.0973 12.0329 56.67 12.8752C56.5357 13.1437 56.4259 13.4123 56.4259 13.4733C56.4259 13.5343 56.8287 14.4254 57.3292 15.463C59.0748 19.0885 59.3678 21.0905 58.7208 24.838C58.379 26.84 56.8287 30.3678 55.7789 31.5153C55.6446 31.674 55.5592 31.7961 55.608 31.7961C55.7057 31.7961 54.9244 32.675 54.1065 33.505C52.5563 35.0675 50.8229 36.276 48.8575 37.1549C48.4913 37.3258 48.1495 37.5089 48.1129 37.57C48.0763 37.631 48.003 37.6676 47.9542 37.6554C47.9054 37.6432 47.4537 37.7775 46.9288 37.9484C44.6461 38.693 41.692 39.0104 39.214 38.7663C37.4928 38.5954 36.1378 38.3024 33.9039 37.6432C32.964 37.3625 32.024 37.0939 31.8287 37.0451C31.6212 36.9962 31.3526 36.9108 31.2184 36.8376C30.7545 36.6056 26.9459 35.5802 25.7862 35.3971C23.943 35.0797 19.3409 35.0065 17.6319 35.2628C14.1651 35.7755 11.0035 36.9108 7.78086 38.8151C7.13389 39.1935 6.52354 39.4743 6.43809 39.4377C6.01084 39.279 4.74131 36.0563 4.26524 33.9323C3.65489 31.1735 3.52061 29.7819 3.60606 27.0353C3.72813 23.2145 4.42393 20.1139 5.9376 16.7204C6.12071 16.3175 6.37705 15.7804 6.52354 15.5119C7.52451 13.6442 7.59776 13.4245 7.3292 12.8507C6.99961 12.1671 6.03526 11.9352 5.32725 12.3747ZM58.6354 35.922C58.3424 37.0329 57.6832 38.632 57.0851 39.694C55.9864 41.6593 54.0211 43.5026 51.6041 44.7965C51.1402 45.0529 50.6642 45.3092 50.5665 45.3581C49.4923 45.944 47.3072 46.7008 45.9278 46.9816C44.0113 47.3722 43.2423 47.4455 41.2525 47.4333C38.0055 47.421 35.9913 47.0304 31.4625 45.5412C28.6427 44.6012 26.6285 44.1374 24.297 43.8932C21.4161 43.5758 17.5465 43.8078 15.1539 44.4425C14.5191 44.6012 13.9088 44.7599 13.7867 44.7965C13.3839 44.8942 13.0299 45.0041 12.6637 45.1627C11.0157 45.8708 10.9425 45.883 10.6007 45.6388C10.2345 45.3581 8.81846 43.527 8.81846 43.3195C8.81846 43.0876 9.52647 42.6237 11.0768 41.8302C13.4693 40.6095 14.5069 40.2555 16.9606 39.7917C19.1578 39.3766 22.8443 39.3522 25.2613 39.7306C26.6041 39.9503 30.0465 40.8781 31.0963 41.3053C31.7921 41.5983 32.0851 41.696 33.4278 42.0866C36.211 42.9167 37.8102 43.173 40.3858 43.2462C42.4 43.2951 44.1822 43.1974 45.2565 42.9777C46.9776 42.6237 49.2848 41.8424 50.6886 41.1222C52.7638 40.0602 55.3883 38.2414 55.2784 37.9362C55.2418 37.8507 55.2784 37.8141 55.3639 37.8385C55.4493 37.8752 56.255 37.1549 57.1583 36.2516C58.2569 35.153 58.8185 34.6647 58.8429 34.799C58.8673 34.8966 58.7696 35.4093 58.6354 35.922ZM24.1261 48.3366C26.1891 48.5807 27.5196 48.8981 30.608 49.8747C36.3575 51.6935 40.0929 52.255 43.4864 51.8156C44.9269 51.6203 44.8536 51.84 43.1813 52.7311C42.339 53.1706 40.7887 53.6833 38.921 54.1349C36.2965 54.7697 34.9659 54.9162 31.7066 54.9162C29.2164 54.9162 28.545 54.8795 27.19 54.6354C25.1881 54.2936 23.2106 53.7565 21.9044 53.2194C21.3429 52.9875 20.8302 52.7921 20.7691 52.7921C20.7081 52.7921 19.9635 52.4626 19.0968 52.0719C16.631 50.9245 14.5191 49.6183 14.5802 49.2643C14.629 49.0446 16.338 48.5685 17.9737 48.3488C19.5606 48.1169 22.234 48.1169 24.1261 48.3366Z" fill="white"/>
</svg>
